<svg width="30" height="27" viewBox="0 0 30 27" fill="none" xmlns="http://www.w3.org/2000/svg">
<path d="M10.4499 20.6787C10.7248 20.6865 10.9956 20.6043 11.2272 20.4425C11.4588 20.2808 11.6406 20.047 11.7492 19.7714C11.8577 19.4957 11.888 19.1909 11.8362 18.8963C11.7843 18.6017 11.6527 18.3308 11.4582 18.1187L4.27158 10.3387L11.4582 2.55868C11.7157 2.27743 11.8604 1.89618 11.8604 1.49868C11.8604 1.10118 11.7157 0.71993 11.4582 0.43868C11.2004 0.157779 10.851 0 10.4866 0C10.1222 0 9.77273 0.157779 9.51491 0.43868L1.33824 9.27868C1.08075 9.55993 0.936122 9.94118 0.936122 10.3387C0.936122 10.7362 1.08075 11.1174 1.33824 11.3987L9.51491 20.2387C9.635 20.3777 9.7799 20.4885 9.9407 20.5642C10.1015 20.6398 10.2748 20.6788 10.4499 20.6787Z" fill="white"/>
<path d="M27.9583 26.9986C28.3214 26.9934 28.6684 26.8337 28.9253 26.5536C29.1821 26.2734 29.3285 25.8948 29.3333 25.4986V10.3386C29.3285 9.94241 29.1821 9.56388 28.9253 9.28369C28.6684 9.0035 28.3214 8.8438 27.9583 8.83862H2.29158C1.92691 8.83862 1.57718 8.99666 1.31931 9.27796C1.06145 9.55927 0.916584 9.9408 0.916584 10.3386C0.916584 10.7364 1.06145 11.118 1.31931 11.3993C1.57718 11.6806 1.92691 11.8386 2.29158 11.8386H26.5833V25.4986C26.588 25.8948 26.7344 26.2734 26.9912 26.5536C27.2481 26.8337 27.5951 26.9934 27.9583 26.9986Z" fill="white"/>
</svg>
