<svg width="32" height="36" viewBox="0 0 32 36" fill="none" xmlns="http://www.w3.org/2000/svg">
<path d="M30 0.500019H5.5C4.21426 0.462286 2.966 0.935802 2.02877 1.8168C1.09154 2.69779 0.541794 3.9144 0.5 5.20002V30C0.552179 31.5085 1.20053 32.9347 2.30284 33.9657C3.40515 34.9968 4.87141 35.5486 6.38 35.5H30C30.3962 35.4948 30.7747 35.3351 31.0549 35.055C31.3351 34.7748 31.4948 34.3962 31.5 34V2.00002C31.4948 1.6038 31.3351 1.22528 31.0549 0.945087C30.7747 0.664897 30.3962 0.505199 30 0.500019ZM28.5 32.5H6.38C5.66677 32.5495 4.96303 32.3141 4.42313 31.8455C3.88322 31.3768 3.55124 30.7131 3.5 30C3.55124 29.2869 3.88322 28.6232 4.42313 28.1546C4.96303 27.6859 5.66677 27.4505 6.38 27.5H28.5V32.5ZM28.5 24.5H6.38C5.37312 24.5011 4.3827 24.7556 3.5 25.24V5.20002C3.54581 4.71179 3.78057 4.26078 4.1542 3.94319C4.52783 3.62561 5.01077 3.46657 5.5 3.50002H28.5V24.5Z" fill="white"/>
<path d="M9.5 11.5H22.5C22.8978 11.5 23.2794 11.342 23.5607 11.0607C23.842 10.7794 24 10.3978 24 10C24 9.60218 23.842 9.22064 23.5607 8.93934C23.2794 8.65804 22.8978 8.5 22.5 8.5H9.5C9.10218 8.5 8.72065 8.65804 8.43934 8.93934C8.15804 9.22064 8 9.60218 8 10C8 10.3978 8.15804 10.7794 8.43934 11.0607C8.72065 11.342 9.10218 11.5 9.5 11.5ZM9.5 18.5H22.5C22.8978 18.5 23.2794 18.342 23.5607 18.0607C23.842 17.7794 24 17.3978 24 17C24 16.6022 23.842 16.2206 23.5607 15.9393C23.2794 15.658 22.8978 15.5 22.5 15.5H9.5C9.10218 15.5 8.72065 15.658 8.43934 15.9393C8.15804 16.2206 8 16.6022 8 17C8 17.3978 8.15804 17.7794 8.43934 18.0607C8.72065 18.342 9.10218 18.5 9.5 18.5Z" fill="white"/>
</svg>
