<svg width="36" height="36" viewBox="0 0 36 36" fill="none" xmlns="http://www.w3.org/2000/svg">
<path d="M18 36C14.4399 36 10.9598 34.9443 7.99974 32.9665C5.03966 30.9886 2.73255 28.1774 1.37018 24.8883C0.00779903 21.5992 -0.348661 17.98 0.345873 14.4884C1.04041 10.9967 2.75474 7.78943 5.27209 5.27209C7.78943 2.75474 10.9967 1.04041 14.4884 0.345873C17.98 -0.348661 21.5992 0.00779903 24.8883 1.37018C28.1774 2.73255 30.9886 5.03966 32.9665 7.99974C34.9443 10.9598 36 14.4399 36 18C36 22.7739 34.1036 27.3523 30.7279 30.7279C27.3523 34.1036 22.7739 36 18 36ZM18 3.00001C15.0333 3.00001 12.1332 3.87974 9.66646 5.52796C7.19972 7.17619 5.27713 9.51887 4.14181 12.2598C3.0065 15.0006 2.70945 18.0166 3.28823 20.9264C3.86701 23.8361 5.29562 26.5088 7.39341 28.6066C9.49119 30.7044 12.1639 32.133 15.0737 32.7118C17.9834 33.2906 20.9994 32.9935 23.7403 31.8582C26.4812 30.7229 28.8238 28.8003 30.4721 26.3336C32.1203 23.8668 33 20.9667 33 18C33 14.0218 31.4197 10.2065 28.6066 7.39341C25.7936 4.58036 21.9783 3.00001 18 3.00001Z" fill="black"/>
<path d="M12 25.4999C11.8029 25.5009 11.6077 25.4624 11.4256 25.3869C11.2436 25.3113 11.0785 25.2002 10.94 25.0599C10.6591 24.7787 10.5013 24.3974 10.5013 23.9999C10.5013 23.6024 10.6591 23.2212 10.94 22.9399L22.94 10.9399C23.2244 10.675 23.6005 10.5307 23.9891 10.5376C24.3777 10.5444 24.7484 10.7019 25.0233 10.9767C25.2981 11.2515 25.4555 11.6223 25.4624 12.0109C25.4692 12.3995 25.325 12.7756 25.06 13.0599L13.06 25.0599C12.9215 25.2002 12.7564 25.3113 12.5744 25.3869C12.3924 25.4624 12.1971 25.5009 12 25.4999Z" fill="black"/>
<path d="M23.9999 25.4999C23.8029 25.5009 23.6076 25.4624 23.4256 25.3869C23.2435 25.3113 23.0784 25.2002 22.9399 25.0599L10.9399 13.0599C10.675 12.7756 10.5307 12.3995 10.5376 12.0109C10.5444 11.6223 10.7019 11.2515 10.9767 10.9767C11.2515 10.7019 11.6223 10.5444 12.0109 10.5376C12.3995 10.5307 12.7756 10.675 13.0599 10.9399L25.0599 22.9399C25.3408 23.2212 25.4986 23.6024 25.4986 23.9999C25.4986 24.3974 25.3408 24.7787 25.0599 25.0599C24.9214 25.2002 24.7563 25.3113 24.5743 25.3869C24.3923 25.4624 24.197 25.5009 23.9999 25.4999Z" fill="black"/>
</svg>
