<svg width="36" height="36" viewBox="0 0 36 36" fill="none" xmlns="http://www.w3.org/2000/svg">
<path d="M30 35.5H6C4.54131 35.5 3.14236 34.9205 2.11091 33.8891C1.07946 32.8576 0.5 31.4587 0.5 30V6C0.5 4.54131 1.07946 3.14236 2.11091 2.11091C3.14236 1.07946 4.54131 0.5 6 0.5H23.72C24.1178 0.5 24.4994 0.658035 24.7807 0.93934C25.062 1.22064 25.22 1.60218 25.22 2C25.22 2.39782 25.062 2.77936 24.7807 3.06066C24.4994 3.34196 24.1178 3.5 23.72 3.5H6C5.33696 3.5 4.70107 3.76339 4.23223 4.23223C3.76339 4.70107 3.5 5.33696 3.5 6V30C3.5 30.663 3.76339 31.2989 4.23223 31.7678C4.70107 32.2366 5.33696 32.5 6 32.5H30C30.663 32.5 31.2989 32.2366 31.7678 31.7678C32.2366 31.2989 32.5 30.663 32.5 30V14.58C32.5 14.1822 32.658 13.8006 32.9393 13.5193C33.2206 13.238 33.6022 13.08 34 13.08C34.3978 13.08 34.7794 13.238 35.0607 13.5193C35.342 13.8006 35.5 14.1822 35.5 14.58V30C35.5 31.4587 34.9205 32.8576 33.8891 33.8891C32.8576 34.9205 31.4587 35.5 30 35.5Z" fill="black"/>
<path d="M15 24.5C14.6141 24.4705 14.2551 24.291 14 24L7.99996 18C7.86628 17.7201 7.82267 17.4056 7.87512 17.0999C7.92757 16.7941 8.07352 16.5122 8.29286 16.2929C8.5122 16.0735 8.79414 15.9276 9.09986 15.8751C9.40559 15.8227 9.72006 15.8663 9.99996 16L14.94 20.94L32 3.99996C32.2799 3.86628 32.5943 3.82267 32.9001 3.87512C33.2058 3.92757 33.4877 4.07352 33.7071 4.29286C33.9264 4.5122 34.0724 4.79414 34.1248 5.09986C34.1773 5.40559 34.1336 5.72006 34 5.99996L16 24C15.7448 24.291 15.3858 24.4705 15 24.5Z" fill="black"/>
</svg>
