<svg width="26" height="6" viewBox="0 0 26 6" fill="none" xmlns="http://www.w3.org/2000/svg">
<path d="M3 6C2.20435 6 1.44129 5.68393 0.87868 5.12132C0.316071 4.55871 0 3.79565 0 3C0 2.20435 0.316071 1.44129 0.87868 0.878679C1.44129 0.31607 2.20435 0 3 0C3.79565 0 4.55871 0.31607 5.12132 0.878679C5.68393 1.44129 6 2.20435 6 3C6 3.79565 5.68393 4.55871 5.12132 5.12132C4.55871 5.68393 3.79565 6 3 6ZM13 6C12.2044 6 11.4413 5.68393 10.8787 5.12132C10.3161 4.55871 10 3.79565 10 3C10 2.20435 10.3161 1.44129 10.8787 0.878679C11.4413 0.31607 12.2044 0 13 0C13.7956 0 14.5587 0.31607 15.1213 0.878679C15.6839 1.44129 16 2.20435 16 3C16 3.79565 15.6839 4.55871 15.1213 5.12132C14.5587 5.68393 13.7956 6 13 6ZM23 6C22.2044 6 21.4413 5.68393 20.8787 5.12132C20.3161 4.55871 20 3.79565 20 3C20 2.20435 20.3161 1.44129 20.8787 0.878679C21.4413 0.31607 22.2044 0 23 0C23.7956 0 24.5587 0.31607 25.1213 0.878679C25.6839 1.44129 26 2.20435 26 3C26 3.79565 25.6839 4.55871 25.1213 5.12132C24.5587 5.68393 23.7956 6 23 6Z" fill="#C01F1F"/>
</svg>
