<svg width="36" height="36" viewBox="0 0 36 36" fill="none" xmlns="http://www.w3.org/2000/svg">
<path d="M30.4399 35.5H5.55989C4.86631 35.4717 4.18513 35.3069 3.5553 35.0151C2.92548 34.7233 2.35938 34.3101 1.8894 33.7992C1.41942 33.2884 1.05479 32.6899 0.816357 32.038C0.577929 31.3861 0.470388 30.6935 0.499888 30V24C0.499888 23.6022 0.657923 23.2206 0.939227 22.9393C1.22053 22.658 1.60206 22.5 1.99989 22.5C2.39771 22.5 2.77924 22.658 3.06055 22.9393C3.34185 23.2206 3.49989 23.6022 3.49989 24V30C3.44825 30.5939 3.62717 31.1848 3.99955 31.6503C4.37193 32.1157 4.90918 32.42 5.49989 32.5H30.4399C31.0306 32.42 31.5679 32.1157 31.9402 31.6503C32.3126 31.1848 32.4915 30.5939 32.4399 30V24C32.4399 23.6022 32.5979 23.2206 32.8792 22.9393C33.1605 22.658 33.5421 22.5 33.9399 22.5C34.3377 22.5 34.7192 22.658 35.0006 22.9393C35.2819 23.2206 35.4399 23.6022 35.4399 24V30C35.4998 31.3907 35.008 32.7489 34.0717 33.7789C33.1353 34.8089 31.83 35.4275 30.4399 35.5Z" fill="white"/>
<path d="M17.9999 25.4999C17.8029 25.5009 17.6076 25.4624 17.4256 25.3869C17.2435 25.3113 17.0784 25.2002 16.9399 25.0599L8.93994 17.0599C8.67498 16.7756 8.53073 16.3995 8.53759 16.0109C8.54444 15.6223 8.70187 15.2515 8.97669 14.9767C9.25152 14.7019 9.62229 14.5444 10.0109 14.5376C10.3995 14.5307 10.7756 14.675 11.0599 14.9399L17.9999 21.8799L24.9399 14.9399C25.2243 14.675 25.6004 14.5307 25.989 14.5376C26.3776 14.5444 26.7484 14.7019 27.0232 14.9767C27.298 15.2515 27.4554 15.6223 27.4623 16.0109C27.4691 16.3995 27.3249 16.7756 27.0599 17.0599L19.0599 25.0599C18.9214 25.2002 18.7563 25.3113 18.5743 25.3869C18.3923 25.4624 18.197 25.5009 17.9999 25.4999Z" fill="white"/>
<path d="M18 25.5C17.6038 25.4948 17.2253 25.3351 16.9451 25.0549C16.6649 24.7747 16.5052 24.3962 16.5 24V2C16.5 1.60218 16.658 1.22064 16.9393 0.93934C17.2206 0.658035 17.6022 0.5 18 0.5C18.3978 0.5 18.7794 0.658035 19.0607 0.93934C19.342 1.22064 19.5 1.60218 19.5 2V24C19.4948 24.3962 19.3351 24.7747 19.0549 25.0549C18.7747 25.3351 18.3962 25.4948 18 25.5Z" fill="white"/>
</svg>
