<svg width="10" height="6" viewBox="0 0 10 6" fill="none" xmlns="http://www.w3.org/2000/svg">
<path d="M4.99991 5.49996C5.09845 5.50043 5.19609 5.48121 5.2871 5.44343C5.37811 5.40565 5.46066 5.35008 5.52991 5.27996L8.99991 1.77996C9.0913 1.63901 9.13272 1.47145 9.11753 1.30414C9.10235 1.13684 9.03143 0.97948 8.91615 0.857284C8.80087 0.735088 8.6479 0.655133 8.48177 0.630233C8.31563 0.605334 8.14595 0.636933 7.99991 0.719965L4.99991 3.71996L1.99991 0.719965C1.85387 0.636933 1.68419 0.605334 1.51805 0.630233C1.35191 0.655133 1.19895 0.735088 1.08367 0.857284C0.96839 0.97948 0.897472 1.13684 0.882285 1.30414C0.867098 1.47145 0.908519 1.63901 0.999909 1.77996L4.49991 5.27996C4.63242 5.41438 4.81128 5.49308 4.99991 5.49996Z" fill="black"/>
</svg>
