<svg width="30" height="30" viewBox="0 0 30 30" fill="none" xmlns="http://www.w3.org/2000/svg">
<path d="M15 30C12.0333 30 9.13319 29.1203 6.66645 27.4721C4.19972 25.8238 2.27713 23.4811 1.14181 20.7403C0.00649919 17.9994 -0.290551 14.9834 0.288228 12.0737C0.867006 9.16394 2.29562 6.49119 4.3934 4.3934C6.49119 2.29562 9.16394 0.867006 12.0737 0.288228C14.9834 -0.290551 17.9994 0.00649919 20.7403 1.14181C23.4811 2.27713 25.8238 4.19972 27.4721 6.66645C29.1203 9.13319 30 12.0333 30 15C30 18.9783 28.4197 22.7936 25.6066 25.6066C22.7936 28.4197 18.9783 30 15 30ZM15 2.50001C12.5277 2.50001 10.111 3.23312 8.05538 4.60664C5.99977 5.98015 4.39761 7.93239 3.45151 10.2165C2.50542 12.5005 2.25788 15.0139 2.74019 17.4386C3.22251 19.8634 4.41302 22.0907 6.16117 23.8388C7.90933 25.587 10.1366 26.7775 12.5614 27.2598C14.9861 27.7421 17.4995 27.4946 19.7836 26.5485C22.0676 25.6024 24.0199 24.0002 25.3934 21.9446C26.7669 19.889 27.5 17.4723 27.5 15C27.5 11.6848 26.183 8.50538 23.8388 6.16117C21.4946 3.81697 18.3152 2.50001 15 2.50001Z" fill="black"/>
<path d="M15 22.9166C14.6698 22.9123 14.3544 22.7792 14.1209 22.5457C13.8874 22.3122 13.7543 21.9968 13.75 21.6666V8.33325C13.75 8.00173 13.8817 7.68379 14.1161 7.44937C14.3505 7.21495 14.6685 7.08325 15 7.08325C15.3315 7.08325 15.6495 7.21495 15.8839 7.44937C16.1183 7.68379 16.25 8.00173 16.25 8.33325V21.6666C16.2457 21.9968 16.1126 22.3122 15.8791 22.5457C15.6456 22.7792 15.3302 22.9123 15 22.9166Z" fill="black"/>
<path d="M21.6666 16.25H8.33325C8.00173 16.25 7.68379 16.1183 7.44937 15.8839C7.21495 15.6495 7.08325 15.3315 7.08325 15C7.08325 14.6685 7.21495 14.3505 7.44937 14.1161C7.68379 13.8817 8.00173 13.75 8.33325 13.75H21.6666C21.9981 13.75 22.316 13.8817 22.5505 14.1161C22.7849 14.3505 22.9166 14.6685 22.9166 15C22.9166 15.3315 22.7849 15.6495 22.5505 15.8839C22.316 16.1183 21.9981 16.25 21.6666 16.25Z" fill="black"/>
</svg>
