<svg width="32" height="36" viewBox="0 0 32 36" fill="none" xmlns="http://www.w3.org/2000/svg">
<path d="M26 35.5H6C4.54131 35.5 3.14236 34.9205 2.11091 33.8891C1.07946 32.8576 0.5 31.4587 0.5 30V6C0.5 4.54131 1.07946 3.14236 2.11091 2.11091C3.14236 1.07946 4.54131 0.5 6 0.5H21C21.3977 0.50035 21.779 0.658615 22.06 0.94L31.06 10C31.3414 10.281 31.4996 10.6623 31.5 11.06V30C31.5 31.4587 30.9205 32.8576 29.8891 33.8891C28.8576 34.9205 27.4587 35.5 26 35.5ZM6 3.5C5.33696 3.5 4.70107 3.76339 4.23223 4.23223C3.76339 4.70107 3.5 5.33696 3.5 6V30C3.5 30.663 3.76339 31.2989 4.23223 31.7678C4.70107 32.2366 5.33696 32.5 6 32.5H26C26.663 32.5 27.2989 32.2366 27.7678 31.7678C28.2366 31.2989 28.5 30.663 28.5 30V11.62L20.38 3.5H6Z" fill="white"/>
<path d="M25.5001 34H22.5001V21.5H9.50008V34H6.50008V21C6.50008 20.337 6.76347 19.7011 7.23231 19.2322C7.70115 18.7634 8.33704 18.5 9.00008 18.5H23.0001C23.6631 18.5 24.299 18.7634 24.7678 19.2322C25.2367 19.7011 25.5001 20.337 25.5001 21V34ZM16.9401 11.5H9.06008C8.72126 11.4974 8.38628 11.4281 8.07426 11.296C7.76224 11.1639 7.4793 10.9716 7.24158 10.7302C7.00386 10.4888 6.81602 10.2029 6.68879 9.88886C6.56157 9.57483 6.49744 9.23881 6.50008 8.9V2H9.50008V8.5H16.5001V2H19.5001V8.9C19.5027 9.23881 19.4386 9.57483 19.3114 9.88886C19.1841 10.2029 18.9963 10.4888 18.7586 10.7302C18.5209 10.9716 18.2379 11.1639 17.9259 11.296C17.6139 11.4281 17.2789 11.4974 16.9401 11.5Z" fill="white"/>
</svg>
