<svg width="36" height="36" viewBox="0 0 36 36" fill="none" xmlns="http://www.w3.org/2000/svg">
<path d="M12 35.4999H6C5.30648 35.5294 4.61394 35.4218 3.96202 35.1834C3.31011 34.945 2.7116 34.5803 2.20075 34.1104C1.68991 33.6404 1.27674 33.0743 0.98491 32.4445C0.693075 31.8146 0.528296 31.1335 0.5 30.4399V5.55989C0.528296 4.86631 0.693075 4.18513 0.98491 3.5553C1.27674 2.92548 1.68991 2.35938 2.20075 1.8894C2.7116 1.41942 3.31011 1.05479 3.96202 0.816357C4.61394 0.577929 5.30648 0.470388 6 0.499888H12C12.3978 0.499888 12.7794 0.657923 13.0607 0.939227C13.342 1.22053 13.5 1.60206 13.5 1.99989C13.5 2.39771 13.342 2.77924 13.0607 3.06055C12.7794 3.34185 12.3978 3.49989 12 3.49989H6C5.40615 3.44825 4.8152 3.62717 4.34973 3.99955C3.88426 4.37193 3.57998 4.90918 3.5 5.49989V30.4399C3.57998 31.0306 3.88426 31.5678 4.34973 31.9402C4.8152 32.3126 5.40615 32.4915 6 32.4399H12C12.3978 32.4399 12.7794 32.5979 13.0607 32.8792C13.342 33.1605 13.5 33.5421 13.5 33.9399C13.5 34.3377 13.342 34.7192 13.0607 35.0005C12.7794 35.2818 12.3978 35.4399 12 35.4399V35.4999ZM26 27.4999C25.8029 27.5008 25.6076 27.4624 25.4256 27.3868C25.2436 27.3113 25.0785 27.2001 24.94 27.0599C24.6591 26.7786 24.5013 26.3974 24.5013 25.9999C24.5013 25.6024 24.6591 25.2211 24.94 24.9399L31.88 17.9999L24.94 11.0599C24.7926 10.9226 24.6744 10.757 24.5924 10.573C24.5105 10.389 24.4664 10.1903 24.4628 9.98893C24.4593 9.78753 24.4963 9.58747 24.5718 9.40069C24.6472 9.21391 24.7595 9.04425 24.9019 8.90181C25.0444 8.75937 25.214 8.64708 25.4008 8.57164C25.5876 8.4962 25.7876 8.45915 25.989 8.4627C26.1905 8.46626 26.3891 8.51034 26.5731 8.59232C26.7571 8.67431 26.9227 8.79251 27.06 8.93989L35.06 16.9399C35.3409 17.2211 35.4987 17.6024 35.4987 17.9999C35.4987 18.3974 35.3409 18.7786 35.06 19.0599L27.06 27.0599C26.9215 27.2001 26.7564 27.3113 26.5744 27.3868C26.3924 27.4624 26.1971 27.5008 26 27.4999Z" fill="black"/>
<path d="M34 19.5H12C11.6022 19.5 11.2206 19.342 10.9393 19.0607C10.658 18.7794 10.5 18.3978 10.5 18C10.5 17.6022 10.658 17.2206 10.9393 16.9393C11.2206 16.658 11.6022 16.5 12 16.5H34C34.3978 16.5 34.7794 16.658 35.0607 16.9393C35.342 17.2206 35.5 17.6022 35.5 18C35.5 18.3978 35.342 18.7794 35.0607 19.0607C34.7794 19.342 34.3978 19.5 34 19.5Z" fill="black"/>
</svg>
