<svg width="13" height="12" viewBox="0 0 13 12" fill="none" xmlns="http://www.w3.org/2000/svg">
<path d="M12.2789 5.08609H0.721052C0.578699 5.08676 0.439318 5.05741 0.32087 5.00181C0.202422 4.9462 0.110334 4.8669 0.056473 4.77411C0.000933153 4.6811 -0.01407 4.57857 0.013371 4.47954C0.040812 4.38051 0.109457 4.28947 0.210578 4.21798L5.98953 0.148757C6.12497 0.0535033 6.30857 0 6.5 0C6.69143 0 6.87503 0.0535033 7.01047 0.148757L12.7894 4.21798C12.8905 4.28947 12.9592 4.38051 12.9866 4.47954C13.0141 4.57857 12.9991 4.6811 12.9435 4.77411C12.8897 4.8669 12.7976 4.9462 12.6791 5.00181C12.5607 5.05741 12.4213 5.08676 12.2789 5.08609ZM2.46437 4.06878H10.5356L6.5 1.2271L2.46437 4.06878ZM6.5 11.8681C6.40509 11.8684 6.31105 11.8554 6.22339 11.8298C6.13573 11.8042 6.05622 11.7665 5.98953 11.7189L0.210578 7.6497C0.109457 7.57821 0.040812 7.48717 0.013371 7.38814C-0.01407 7.28911 0.000933153 7.18658 0.056473 7.09357C0.110334 7.00078 0.202422 6.92148 0.32087 6.86587C0.439318 6.81027 0.578699 6.78092 0.721052 6.7816H12.2789C12.4213 6.78092 12.5607 6.81027 12.6791 6.86587C12.7976 6.92148 12.8897 7.00078 12.9435 7.09357C12.9991 7.18658 13.0141 7.28911 12.9866 7.38814C12.9592 7.48717 12.8905 7.57821 12.7894 7.6497L7.01047 11.7189C6.94378 11.7665 6.86427 11.8042 6.77661 11.8298C6.68895 11.8554 6.59491 11.8684 6.5 11.8681ZM2.46437 7.7989L6.5 10.6406L10.5356 7.7989H2.46437Z" fill="black"/>
</svg>
