<svg width="36" height="36" viewBox="0 0 36 36" fill="none" xmlns="http://www.w3.org/2000/svg">
<path d="M34 11.3999H2C1.60218 11.3999 1.22064 11.2419 0.93934 10.9606C0.658035 10.6793 0.5 10.2977 0.5 9.8999C0.5 9.50208 0.658035 9.12055 0.93934 8.83924C1.22064 8.55794 1.60218 8.3999 2 8.3999H34C34.3978 8.3999 34.7794 8.55794 35.0607 8.83924C35.342 9.12055 35.5 9.50208 35.5 9.8999C35.5 10.2977 35.342 10.6793 35.0607 10.9606C34.7794 11.2419 34.3978 11.3999 34 11.3999Z" fill="black"/>
<path d="M26.88 35.5001H9.12C8.48619 35.5434 7.85007 35.4605 7.24853 35.2562C6.647 35.0518 6.09201 34.7301 5.61575 34.3097C5.13949 33.8892 4.75143 33.3784 4.47408 32.8069C4.19672 32.2353 4.03558 31.6144 4 30.9801V10.0001C4 9.60227 4.15804 9.22074 4.43934 8.93943C4.72064 8.65813 5.10218 8.50009 5.5 8.50009C5.89782 8.50009 6.27936 8.65813 6.56066 8.93943C6.84196 9.22074 7 9.60227 7 10.0001V30.9801C7 31.8001 7.94 32.5001 9 32.5001H26.76C27.88 32.5001 28.76 31.8001 28.76 30.9801V10.0001C28.76 9.57044 28.9307 9.15839 29.2345 8.85458C29.5383 8.55077 29.9503 8.38009 30.38 8.38009C30.8097 8.38009 31.2217 8.55077 31.5255 8.85458C31.8293 9.15839 32 9.57044 32 10.0001V30.9801C31.9644 31.6144 31.8033 32.2353 31.5259 32.8069C31.2486 33.3784 30.8605 33.8892 30.3842 34.3097C29.908 34.7301 29.353 35.0518 28.7515 35.2562C28.1499 35.4605 27.5138 35.5434 26.88 35.5001ZM27.12 9.50009C26.9223 9.50278 26.726 9.46582 26.5428 9.39139C26.3596 9.31696 26.1932 9.20657 26.0533 9.06675C25.9135 8.92692 25.8031 8.76049 25.7287 8.57728C25.6543 8.39408 25.6173 8.19782 25.62 8.00009V5.02009C25.62 4.20009 24.66 3.50009 23.62 3.50009H12.44C11.34 3.50009 10.44 4.20009 10.44 5.02009V8.00009C10.44 8.39792 10.282 8.77945 10.0007 9.06075C9.71936 9.34206 9.33782 9.50009 8.94 9.50009C8.54217 9.50009 8.16064 9.34206 7.87934 9.06075C7.59804 8.77945 7.44 8.39792 7.44 8.00009V5.02009C7.51744 3.76271 8.08407 2.58562 9.01858 1.74082C9.95309 0.896024 11.1812 0.450664 12.44 0.500092H23.56C24.8289 0.434466 26.0724 0.872531 27.02 1.719C27.9676 2.56546 28.5426 3.75185 28.62 5.02009V8.00009C28.6226 8.19875 28.5858 8.39596 28.5116 8.58026C28.4374 8.76456 28.3273 8.93229 28.1878 9.0737C28.0482 9.21512 27.882 9.3274 27.6987 9.40403C27.5154 9.48066 27.3187 9.52011 27.12 9.52009V9.50009Z" fill="black"/>
<path d="M14.4399 27.9999C14.0437 27.9948 13.6652 27.8351 13.385 27.5549C13.1048 27.2747 12.9451 26.8962 12.9399 26.4999V17.4399C12.9399 17.0421 13.098 16.6606 13.3793 16.3793C13.6606 16.098 14.0421 15.9399 14.4399 15.9399C14.8378 15.9399 15.2193 16.098 15.5006 16.3793C15.7819 16.6606 15.9399 17.0421 15.9399 17.4399V26.4799C15.9426 26.6786 15.9057 26.8758 15.8316 27.0601C15.7574 27.2444 15.6473 27.4121 15.5077 27.5536C15.3682 27.695 15.2019 27.8072 15.0186 27.8839C14.8353 27.9605 14.6386 28 14.4399 27.9999ZM21.5599 27.9999C21.1621 27.9999 20.7806 27.8419 20.4993 27.5606C20.218 27.2793 20.0599 26.8978 20.0599 26.4999V17.4399C20.0599 17.0421 20.218 16.6606 20.4993 16.3793C20.7806 16.098 21.1621 15.9399 21.5599 15.9399C21.9578 15.9399 22.3393 16.098 22.6206 16.3793C22.9019 16.6606 23.0599 17.0421 23.0599 17.4399V26.4799C23.06 26.8796 22.9026 27.2632 22.6218 27.5477C22.3411 27.8322 21.9596 27.9947 21.5599 27.9999Z" fill="black"/>
</svg>
