<svg width="36" height="36" viewBox="0 0 36 36" fill="none" xmlns="http://www.w3.org/2000/svg">
<path d="M34 11.4H2C1.60218 11.4 1.22064 11.242 0.93934 10.9607C0.658035 10.6794 0.5 10.2978 0.5 9.90002C0.5 9.5022 0.658035 9.12067 0.93934 8.83937C1.22064 8.55806 1.60218 8.40002 2 8.40002H34C34.3978 8.40002 34.7794 8.55806 35.0607 8.83937C35.342 9.12067 35.5 9.5022 35.5 9.90002C35.5 10.2978 35.342 10.6794 35.0607 10.9607C34.7794 11.242 34.3978 11.4 34 11.4Z" fill="#FF0000"/>
<path d="M26.88 35.5H9.12C8.48619 35.5433 7.85007 35.4604 7.24853 35.2561C6.647 35.0517 6.09201 34.73 5.61575 34.3096C5.13949 33.8891 4.75143 33.3783 4.47408 32.8067C4.19672 32.2352 4.03558 31.6143 4 30.98V9.99997C4 9.60215 4.15804 9.22061 4.43934 8.93931C4.72064 8.658 5.10218 8.49997 5.5 8.49997C5.89782 8.49997 6.27936 8.658 6.56066 8.93931C6.84196 9.22061 7 9.60215 7 9.99997V30.98C7 31.8 7.94 32.5 9 32.5H26.76C27.88 32.5 28.76 31.8 28.76 30.98V9.99997C28.76 9.57032 28.9307 9.15827 29.2345 8.85446C29.5383 8.55065 29.9503 8.37997 30.38 8.37997C30.8097 8.37997 31.2217 8.55065 31.5255 8.85446C31.8293 9.15827 32 9.57032 32 9.99997V30.98C31.9644 31.6143 31.8033 32.2352 31.5259 32.8067C31.2486 33.3783 30.8605 33.8891 30.3842 34.3096C29.908 34.73 29.353 35.0517 28.7515 35.2561C28.1499 35.4604 27.5138 35.5433 26.88 35.5ZM27.12 9.49997C26.9223 9.50266 26.726 9.4657 26.5428 9.39127C26.3596 9.31684 26.1932 9.20645 26.0533 9.06662C25.9135 8.9268 25.8031 8.76037 25.7287 8.57716C25.6543 8.39396 25.6173 8.1977 25.62 7.99997V5.01997C25.62 4.19997 24.66 3.49997 23.62 3.49997H12.44C11.34 3.49997 10.44 4.19997 10.44 5.01997V7.99997C10.44 8.39779 10.282 8.77933 10.0007 9.06063C9.71936 9.34193 9.33782 9.49997 8.94 9.49997C8.54217 9.49997 8.16064 9.34193 7.87934 9.06063C7.59804 8.77933 7.44 8.39779 7.44 7.99997V5.01997C7.51744 3.76259 8.08407 2.5855 9.01858 1.7407C9.95309 0.895902 11.1812 0.450542 12.44 0.49997H23.56C24.8289 0.434344 26.0724 0.872409 27.02 1.71887C27.9676 2.56534 28.5426 3.75173 28.62 5.01997V7.99997C28.6226 8.19863 28.5858 8.39583 28.5116 8.58014C28.4374 8.76444 28.3273 8.93217 28.1878 9.07358C28.0482 9.215 27.882 9.32728 27.6987 9.40391C27.5154 9.48054 27.3187 9.51999 27.12 9.51997V9.49997Z" fill="#FF0000"/>
<path d="M14.4399 27.9999C14.0437 27.9948 13.6652 27.8351 13.385 27.5549C13.1048 27.2747 12.9451 26.8962 12.9399 26.4999V17.4399C12.9399 17.0421 13.098 16.6606 13.3793 16.3793C13.6606 16.098 14.0421 15.9399 14.4399 15.9399C14.8378 15.9399 15.2193 16.098 15.5006 16.3793C15.7819 16.6606 15.9399 17.0421 15.9399 17.4399V26.4799C15.9426 26.6786 15.9057 26.8758 15.8316 27.0601C15.7574 27.2444 15.6473 27.4121 15.5077 27.5536C15.3682 27.695 15.2019 27.8072 15.0186 27.8839C14.8353 27.9605 14.6386 28 14.4399 27.9999ZM21.5599 27.9999C21.1621 27.9999 20.7806 27.8419 20.4993 27.5606C20.218 27.2793 20.0599 26.8978 20.0599 26.4999V17.4399C20.0599 17.0421 20.218 16.6606 20.4993 16.3793C20.7806 16.098 21.1621 15.9399 21.5599 15.9399C21.9578 15.9399 22.3393 16.098 22.6206 16.3793C22.9019 16.6606 23.0599 17.0421 23.0599 17.4399V26.4799C23.06 26.8796 22.9026 27.2632 22.6218 27.5477C22.3411 27.8322 21.9596 27.9947 21.5599 27.9999Z" fill="#FF0000"/>
</svg>
