<svg width="30" height="36" viewBox="0 0 30 36" fill="none" xmlns="http://www.w3.org/2000/svg">
<path d="M15 35.5C11.156 35.4947 7.47093 33.9653 4.7528 31.2472C2.03466 28.5291 0.505291 24.844 0.5 21C0.5 20.6022 0.658035 20.2206 0.93934 19.9393C1.22064 19.658 1.60218 19.5 2 19.5C2.39782 19.5 2.77936 19.658 3.06066 19.9393C3.34196 20.2206 3.5 20.6022 3.5 21C3.5 23.2745 4.17446 25.4979 5.4381 27.3891C6.70174 29.2802 8.49779 30.7542 10.5991 31.6246C12.7005 32.495 15.0128 32.7228 17.2435 32.279C19.4743 31.8353 21.5234 30.74 23.1317 29.1317C24.74 27.5234 25.8353 25.4743 26.279 23.2435C26.7228 21.0128 26.495 18.7005 25.6246 16.5991C24.7542 14.4978 23.2802 12.7017 21.3891 11.4381C19.4979 10.1745 17.2745 9.5 15 9.5H10C9.60218 9.5 9.22064 9.34196 8.93934 9.06066C8.65804 8.77936 8.5 8.39782 8.5 8C8.5 7.60218 8.65804 7.22064 8.93934 6.93934C9.22064 6.65804 9.60218 6.5 10 6.5H15C18.8456 6.5 22.5338 8.02767 25.253 10.747C27.9723 13.4662 29.5 17.1544 29.5 21C29.5 24.8456 27.9723 28.5338 25.253 31.253C22.5338 33.9723 18.8456 35.5 15 35.5Z" fill="black"/>
<path d="M14.9999 15.5001C14.8028 15.501 14.6075 15.4626 14.4255 15.387C14.2435 15.3114 14.0784 15.2003 13.9399 15.0601L7.9399 9.06006C7.659 8.77881 7.50122 8.39756 7.50122 8.00006C7.50122 7.60256 7.659 7.22131 7.9399 6.94006L13.9399 0.940063C14.0772 0.79269 14.2428 0.674485 14.4268 0.592501C14.6108 0.510518 14.8095 0.466433 15.0109 0.46288C15.2123 0.459326 15.4123 0.496376 15.5991 0.571818C15.7859 0.64726 15.9555 0.759549 16.098 0.901986C16.2404 1.04442 16.3527 1.21409 16.4281 1.40087C16.5036 1.58764 16.5406 1.7877 16.5371 1.98911C16.5335 2.19051 16.4894 2.38914 16.4075 2.57314C16.3255 2.75714 16.2073 2.92274 16.0599 3.06006L11.1199 8.00006L16.0599 12.9401C16.3408 13.2213 16.4986 13.6026 16.4986 14.0001C16.4986 14.3976 16.3408 14.7788 16.0599 15.0601C15.9214 15.2003 15.7563 15.3114 15.5743 15.387C15.3923 15.4626 15.197 15.501 14.9999 15.5001Z" fill="black"/>
</svg>
