<svg width="30" height="36" viewBox="0 0 30 36" fill="none" xmlns="http://www.w3.org/2000/svg">
<path d="M15 35.5C11.156 35.4947 7.47093 33.9653 4.7528 31.2472C2.03466 28.5291 0.505291 24.844 0.5 21C0.5 20.6022 0.658035 20.2206 0.93934 19.9393C1.22064 19.658 1.60218 19.5 2 19.5C2.39782 19.5 2.77936 19.658 3.06066 19.9393C3.34196 20.2206 3.5 20.6022 3.5 21C3.5 23.2745 4.17446 25.4979 5.4381 27.3891C6.70174 29.2802 8.49779 30.7542 10.5991 31.6246C12.7005 32.495 15.0128 32.7228 17.2435 32.279C19.4743 31.8353 21.5234 30.74 23.1317 29.1317C24.74 27.5234 25.8353 25.4743 26.279 23.2435C26.7228 21.0128 26.495 18.7005 25.6246 16.5991C24.7542 14.4978 23.2802 12.7017 21.3891 11.4381C19.4979 10.1745 17.2745 9.5 15 9.5H10C9.60218 9.5 9.22064 9.34196 8.93934 9.06066C8.65804 8.77936 8.5 8.39782 8.5 8C8.5 7.60218 8.65804 7.22064 8.93934 6.93934C9.22064 6.65804 9.60218 6.5 10 6.5H15C18.8456 6.5 22.5338 8.02767 25.253 10.747C27.9723 13.4662 29.5 17.1544 29.5 21C29.5 24.8456 27.9723 28.5338 25.253 31.253C22.5338 33.9723 18.8456 35.5 15 35.5Z" fill="white"/>
<path d="M14.9999 15.4999C14.8028 15.5009 14.6075 15.4624 14.4255 15.3869C14.2435 15.3113 14.0784 15.2002 13.9399 15.0599L7.9399 9.05994C7.659 8.77869 7.50122 8.39744 7.50122 7.99994C7.50122 7.60244 7.659 7.22119 7.9399 6.93994L13.9399 0.939941C14.0772 0.792568 14.2428 0.674363 14.4268 0.592379C14.6108 0.510395 14.8095 0.466311 15.0109 0.462758C15.2123 0.459204 15.4123 0.496254 15.5991 0.571696C15.7859 0.647138 15.9555 0.759427 16.098 0.901864C16.2404 1.0443 16.3527 1.21397 16.4281 1.40075C16.5036 1.58752 16.5406 1.78758 16.5371 1.98899C16.5335 2.19039 16.4894 2.38902 16.4075 2.57302C16.3255 2.75702 16.2073 2.92262 16.0599 3.05994L11.1199 7.99994L16.0599 12.9399C16.3408 13.2212 16.4986 13.6024 16.4986 13.9999C16.4986 14.3974 16.3408 14.7787 16.0599 15.0599C15.9214 15.2002 15.7563 15.3113 15.5743 15.3869C15.3923 15.4624 15.197 15.5009 14.9999 15.4999Z" fill="white"/>
</svg>
